<svg width="235" height="235" viewBox="0 0 235 235" fill="none" xmlns="http://www.w3.org/2000/svg">
<path d="M95 128.524C100.167 124.857 114.7 115.424 125.5 103.024C139 87.524 145 73.024 158 72.024C171 71.024 182 101.524 203 113.024C213.269 118.648 221.796 121.594 226.951 121.961C227.522 122.001 227.976 122.484 227.943 123.055C224.379 183.028 171.338 228 117.308 228C60.4416 228 18.5004 183.533 10.6372 144.204C10.5527 143.781 10.7483 143.364 11.1195 143.145C28.8742 132.635 44.9746 95.6285 60 96.0239C75.2 96.4239 82 116.524 95 128.524ZM95 128.524C94.3333 132.024 96.9371 138.957 105 147.524C113 156.024 113.5 152.024 121.5 157.024C125.5 159.524 117 164.524 123.5 172.024C128.267 177.524 133.529 172.024 140 177.524C144.5 185.524 137.5 187.524 144.5 194.524" stroke="black" stroke-width="4"/>
<circle cx="95.5" cy="95.524" r="7.5" stroke="black" stroke-width="3"/>
<circle cx="117.5" cy="117.5" r="116.5" stroke="black" stroke-width="2"/>
</svg>
