<svg width="224" height="126" viewBox="0 0 224 126" fill="none" xmlns="http://www.w3.org/2000/svg">
<path d="M85 58.024C90.1667 54.3574 104.7 45.424 115.5 33.024C129 17.524 135 3.02402 148 2.02402C161 1.02402 172 31.524 193 43.024C204 49.0478 219 50.524 224 50.524" stroke="black" stroke-width="4"/>
<path d="M1 72.5239C19 62.5239 34.8 25.6239 50 26.0239C65.2 26.4239 72 46.5239 85 58.5239C84.3333 62.0239 86.9371 68.9571 95 77.5239C103 86.0239 103.5 82.0239 111.5 87.0239C115.5 89.5239 107 94.5239 113.5 102.024C118.267 107.524 123.529 102.024 130 107.524C134.5 115.524 127.5 117.524 134.5 124.524" stroke="black" stroke-width="4"/>
<circle cx="85.5" cy="25.524" r="7.5" stroke="black" stroke-width="3"/>
</svg>
